# AST/ASF file generated using VICON BodyLanguage
# -----------------------------------------------
:version 1.10
:name VICON
:units
  mass 1.0
  length 0.45
  angle deg
:documentation
   .ast/.asf automatically generated from VICON data using
   VICON BodyBuilder and BodyLanguage model FoxedUp or BRILLIANT.MOD
:root
   order TX TY TZ RX RY RZ
   axis XYZ
   position 0 0 0  
   orientation 0 0 0 
:bonedata
  begin
     id 1 
     name lhipjoint
     direction 0.661853 -0.702389 0.261917 
     length 2.64193 
     axis 0 0 0  XYZ
  end
  begin
     id 2 
     name lfemur
     direction 0.34202 -0.939693 0  
     length 7.01722  
     axis 0 0 20  XYZ
    dof rx ry rz
    limits (-160.0 20.0)
           (-70.0 70.0)
           (-60.0 70.0)
  end
  begin
     id 3 
     name ltibia
     direction 0.34202 -0.939693 0   
     length 8.25008   
     axis 0 0 20   XYZ
    dof rx
    limits (-10.0 170.0)
  end
  begin
     id 4 
     name lfoot
     direction 0.0709916 -0.195048 0.978221   
     length 2.31941   
     axis -90 7.62852e-016 20   XYZ
    dof rx rz
    limits (-45.0 90.0)
           (-70.0 20.0)
  end
  begin
     id 5 
     name ltoes
     direction 1.53586e-011 -4.22017e-011 1   
     length 1.16486   
     axis -90 7.62852e-016 20   XYZ
    dof rx
    limits (-90.0 20.0)
  end
  begin
     id 6 
     name rhipjoint
     direction -0.638185 -0.721362 0.268992   
     length 2.57244  
     axis 0 0 0  XYZ 
  end
  begin
     id 7 
     name rfemur
     direction -0.34202 -0.939693 0   
     length 7.07017   
     axis 0 0 -20   XYZ
    dof rx ry rz
    limits (-160.0 20.0)
           (-70.0 70.0)
           (-70.0 60.0)
  end
  begin
     id 8 
     name rtibia
     direction -0.34202 -0.939693 0   
     length 8.20386   
     axis 0 0 -20   XYZ
    dof rx
    limits (-10.0 170.0)
 end
 begin
     id 9 
     name rfoot
     direction -0.0822429 -0.225961 0.970658   
     length 2.32215  
     axis -90 -7.62852e-016 -20   XYZ
    dof rx rz
    limits (-45.0 90.0)
           (-20.0 70.0)
  end
  begin
     id 10 
     name rtoes
     direction -1.53597e-011 -4.21689e-011 1   
     length 1.16333   
     axis -90 -7.62852e-016 -20   XYZ
    dof rx
    limits (-90.0 20.0)
  end
  begin
     id 11 
     name lowerback
     direction -0.0131557 0.998589 -0.0514484   
     length 2.14993   
     axis 0 0 0   XYZ
    dof rx ry rz
    limits (-20.0 45.0)
           (-30.0 30.0)
           (-30.0 30.0)
  end
  begin
     id 12 
     name upperback
     direction -0.000776481 0.999993 0.00352685   
     length 2.15301   
     axis 0 0 0   XYZ
    dof rx ry rz
    limits (-20.0 45.0)
           (-30.0 30.0)
           (-30.0 30.0)
  end
  begin
     id 13 
     name thorax
     direction 0.00438186 0.999609 0.0276143   
     length 2.15424   
     axis 0 0 0   XYZ
    dof rx ry rz
    limits (-20.0 45.0)
           (-30.0 30.0)
           (-30.0 30.0)
  end
  begin
     id 14 
     name lowerneck
     direction -0.0488006 0.998094 0.0377807   
     length 1.90481   
     axis 0 0 0   XYZ
    dof rx ry rz
    limits (-20.0 45.0)
           (-30.0 30.0)
           (-30.0 30.0)
  end
  begin
     id 15 
     name upperneck
     direction 0.0443769 0.990702 -0.12861   
     length 1.91305   
     axis 0 0 0   XYZ
    dof rx ry rz
    limits (-20.0 45.0)
           (-30.0 30.0)
           (-30.0 30.0)
  end
  begin
     id 16
     name head
     direction 0.0165599 0.998647 -0.0492982  
     length 1.92369  
     axis 0 0 0   XYZ
    dof rx ry rz
    limits (-20.0 45.0)
           (-30.0 30.0)
           (-30.0 30.0)
  end
  begin
     id 17 
     name lclavicle
     direction 0.911936 0.410197 -0.0105506  
     length 3.52622  
     axis 0 0 0   XYZ
    dof ry rz
    limits (-20.0 10.0)
           (0.0 20.0)
  end
  begin
     id 18 
     name lhumerus
     direction 1 -4.48974e-011 -2.48591e-028   
     length 5.47651   
     axis 180 -30 -90   XYZ
    dof rx ry rz
    limits (-60.0 90.0)
           (-90.0 90.0)
           (-90.0 90.0)
  end
  begin
     id 19
     name lradius
     direction 1 -4.48938e-011 -4.40099e-027   
     length 3.09058   
     axis 180 -30 -90   XYZ
    dof rx
    limits (-10.0 170.0)
  end
  begin
     id 20
     name lwrist
     direction 1 -4.49042e-011 -2.99852e-027   
     length 1.54529   
     axis 1.95339e-015 90 90   XYZ
    dof ry
    limits (-180.0 0.0)
 end
  begin
     id 21 
     name lhand
     direction 1 -4.48815e-011 -5.98193e-027   
     length 0.771611   
     axis 3.82337e-015 90 90   XYZ
    dof rx rz
    limits (-90.0 90.0)
           (-45.0 45.0)
  end
  begin
     id 22 
     name lfingers
     direction 1 -4.49034e-011 -1.1993e-026   
     length 0.622093   
     axis 7.64668e-015 90 90   XYZ
    dof rx
    limits (0.0 90.0)
  end
  begin
     id 23
     name lthumb
     direction 0.707107 -6.34867e-011 0.707107   
     length 0.893204   
     axis -90 45 -1.62303e-014   XYZ
    dof rx rz
    limits (-45.0 45.0)
           (-45.0 45.0)
  end
  begin
     id 24 
     name rclavicle
     direction -0.93442 0.355634 -0.0195692   
     length 3.62463  
     axis 0 0 0   XYZ 
    dof ry rz
    limits (-10.0 20.0)
           (-20.0 0.0)
  end
  begin
     id 25 
     name rhumerus
     direction -1 -4.48957e-011 -1.19147e-027  
     length 5.14182   
     axis 180 30 90   XYZ
    dof rx ry rz
    limits (-90.0 60.0)
           (-90.0 90.0)
           (-90.0 90.0)
  end
  begin
     id 26 
     name rradius
     direction -1 -4.48952e-011 -3.81062e-027   
     length 3.35565   
     axis 180 30 90   XYZ
    dof rx
    limits (-10.0 170.0)
  end
  begin
     id 27 
     name rwrist
     direction -1 -4.48973e-011 -2.99621e-027   
     length 1.67782   
     axis 1.95339e-015 -90 -90   XYZ
    dof ry
    limits (-180.0 0.0)
  end
  begin
     id 28
     name rhand
     direction -1 -4.48895e-011 -5.98727e-027   
     length 0.801042   
     axis 3.82337e-015 -90 -90   XYZ
    dof rx rz
    limits (-90.0 90.0)
           (-45.0 45.0)
  end
  begin
     id 29
     name rfingers
     direction -1 -4.49065e-011 -1.19972e-026   
     length 0.645821   
     axis 7.64668e-015 -90 -90   XYZ
    dof rx
    limits (0.0 90.0)
  end
  begin
     id 30
     name rthumb
     direction -0.707107 -6.34957e-011 0.707107   
     length 0.927273   
     axis -90 -45 1.62303e-014   XYZ
    dof rx rz
    limits (-45.0 45.0)
           (-45.0 45.0)
  end
:hierarchy
  begin
    root lhipjoint rhipjoint lowerback
    lhipjoint lfemur
    lfemur ltibia
    ltibia lfoot
    lfoot ltoes
    rhipjoint rfemur
    rfemur rtibia
    rtibia rfoot
    rfoot rtoes
    lowerback upperback
    upperback thorax
    thorax lowerneck lclavicle rclavicle
    lowerneck upperneck
    upperneck head
    lclavicle lhumerus
    lhumerus lradius
    lradius lwrist
    lwrist lhand lthumb
    lhand lfingers
    rclavicle rhumerus
    rhumerus rradius
    rradius rwrist
    rwrist rhand rthumb
    rhand rfingers
  end

#!OML:ASF E:\Style4\Style4.ASF
:FULLY-SPECIFIED
:DEGREES
493
root -0.112045 17.8069 -1.21981 1.09694 0.15336 1.61808
lowerback 6.47007 2.4471 -0.484441
upperback 2.23723 3.21953 -0.244076
thorax -1.33018 1.60647 -0.220592
lowerneck -3.46073 -5.39268 -6.74153
upperneck 5.27772 -7.12521 5.04148
head 2.79326 -3.54354 2.56855
rclavicle -4.58944e-014 -5.96354e-016
rhumerus 48.2523 58.4015 -16.8969
rradius 75.798
rwrist -37.5954
rhand -12.3476 25.6101
rfingers 7.12502
rthumb 13.7221 -3.91745
lclavicle -4.58944e-014 -5.96354e-016
lhumerus 75.1212 -45.0609 5.10623
lradius 99.69
lwrist 23.0792
lhand -16.4008 10.5051
lfingers 7.12502
lthumb 9.81349 40.2565
rfemur -13.2602 4.0017 17.3938
rtibia 31.8891
rfoot -18.1452 -14.2073
rtoes -12.3191
lfemur -12.4836 -3.37296 -20.0855
ltibia 30.373
lfoot -18.6664 9.81435
ltoes -17.8753
494
root -0.11084 17.8073 -1.21593 1.09244 0.240714 1.5904
lowerback 6.44856 2.41375 -0.400435
upperback 2.2469 3.18057 -0.250722
thorax -1.30335 1.58726 -0.269982
lowerneck -3.3857 -5.3662 -6.7307
upperneck 5.17659 -7.08735 4.96755
head 2.73806 -3.52711 2.54547
rclavicle 1.21756e-014 7.7526e-015
rhumerus 49.4241 59.5878 -15.1776
rradius 76.8152
rwrist -37.4561
rhand -12.2621 25.5111
rfingers 7.12502
rthumb 13.8044 -4.01088
lclavicle 1.21756e-014 7.7526e-015
lhumerus 74.2496 -44.7562 6.27924
lradius 98.7599
lwrist 23.2375
lhand -16.825 10.7686
lfingers 7.12502
lthumb 9.40419 40.5388
rfemur -13.2163 3.99606 17.4245
rtibia 31.8858
rfoot -18.1711 -14.2691
rtoes -12.4513
lfemur -12.4735 -3.42326 -20.061
ltibia 30.3643
lfoot -18.6026 9.78703
ltoes -18.0535
495
root -0.108974 17.8088 -1.21236 1.08913 0.321229 1.56206
lowerback 6.40443 2.37227 -0.235543
upperback 2.27348 3.13497 -0.315668
thorax -1.2391 1.56519 -0.422192
lowerneck -3.32634 -5.32294 -6.71819
upperneck 5.09164 -7.03313 4.99607
head 2.69555 -3.49965 2.55714
rclavicle -3.08613e-014 -2.5842e-015
rhumerus 50.4569 60.5969 -13.7385
rradius 78.0141
rwrist -37.7065
rhand -11.1151 25.144
rfingers 7.12502
rthumb 14.9096 -4.29946
lclavicle -3.08613e-014 -2.5842e-015
lhumerus 73.5534 -44.4604 7.1387
lradius 97.7435
lwrist 23.2959
lhand -17.3744 10.8309
lfingers 7.12502
lthumb 8.87407 40.6243
rfemur -13.1799 3.93806 17.4528
rtibia 31.8722
rfoot -18.1656 -14.3157
rtoes -12.4462
lfemur -12.4788 -3.49366 -20.0363
ltibia 30.3924
lfoot -18.6812 9.70904
ltoes -17.6769
496
root -0.109583 17.808 -1.21315 1.07047 0.372294 1.53706
lowerback 6.45651 2.31684 -0.0606206
upperback 2.28085 3.07013 -0.417722
thorax -1.24591 1.53357 -0.621663
lowerneck -3.35928 -5.26081 -6.67405
upperneck 5.1361 -6.95548 5.05769
head 2.71255 -3.45827 2.57265
rclavicle -6.13748e-015 -1.5704e-014
rhumerus 51.6934 61.5475 -12.2447
rradius 79.2906
rwrist -37.7234
rhand -10.6084 24.9909
rfingers 7.12502
rthumb 15.3977 -4.41568
lclavicle -6.13748e-015 -1.5704e-014
lhumerus 72.7928 -44.2382 7.89685
lradius 96.6481
lwrist 23.3548
lhand -17.8829 10.7091
lfingers 7.12502
lthumb 8.38334 40.5228
rfemur -13.1459 3.95872 17.4902
rtibia 31.862
rfoot -18.1897 -14.3762
rtoes -12.1049
lfemur -12.4979 -3.49051 -20.0021
ltibia 30.4357
lfoot -18.7164 9.65762
ltoes -17.6336
497
root -0.109805 17.8059 -1.21526 1.05166 0.400415 1.48216
lowerback 6.49715 2.27511 -0.0427211
upperback 2.29094 3.01633 -0.373866
thorax -1.26006 1.50657 -0.584298
lowerneck -3.32267 -5.20082 -6.7026
upperneck 5.0926 -6.87191 5.01675
head 2.68481 -3.41871 2.56886
rclavicle -2.70099e-014 -5.76476e-015
rhumerus 53.3109 62.4013 -10.2869
rradius 80.5673
rwrist -37.3749
rhand -10.8247 25.1628
rfingers 7.12502
rthumb 15.1894 -4.25964
lclavicle -2.70099e-014 -5.76476e-015
lhumerus 71.8906 -44.0693 8.91502
lradius 95.4778
lwrist 23.535
lhand -18.1707 10.4399
lfingers 7.12502
lthumb 8.10557 40.2644
rfemur -13.1286 3.93821 17.5582
rtibia 31.8606
rfoot -18.1861 -14.4038
rtoes -12.2105
lfemur -12.5232 -3.46041 -19.9397
ltibia 30.4845
lfoot -18.715 9.65638
ltoes -17.9876
498
root -0.109312 17.8051 -1.2149 1.02816 0.393923 1.45292
lowerback 6.50145 2.25388 -0.0709853
upperback 2.30857 2.98743 -0.309739
thorax -1.24946 1.49193 -0.500398
lowerneck -3.22397 -5.13559 -6.76011
upperneck 4.97446 -6.78128 4.97077
head 2.62109 -3.37682 2.57059
rclavicle 1.81639e-014 -1.19271e-015
rhumerus 54.7866 63.0743 -8.4933
rradius 81.8693
rwrist -36.945
rhand -10.5372 25.482
rfingers 7.12502
rthumb 15.4663 -3.91931
lclavicle 1.81639e-014 -1.19271e-015
lhumerus 71.1162 -43.9556 9.84817
lradius 94.3636
lwrist 23.7125
lhand -18.3628 10.7427
lfingers 7.12502
lthumb 7.92019 40.5743
rfemur -13.1078 3.95202 17.5902
rtibia 31.8698
rfoot -18.2329 -14.3888
rtoes -11.9857
lfemur -12.5285 -3.42123 -19.9091
ltibia 30.5411
lfoot -18.7253 9.60893
ltoes -17.9848
499
root -0.107703 17.8046 -1.214 1.02934 0.390056 1.453
lowerback 6.49324 2.20833 0.0259891
upperback 2.3151 2.93211 -0.36113
thorax -1.23102 1.46479 -0.602534
lowerneck -3.2064 -5.07034 -6.72679
upperneck 4.97772 -6.69558 4.94953
head 2.61062 -3.33432 2.56151
rclavicle 2.87244e-014 1.2921e-014
rhumerus 56.1528 63.5978 -6.99166
rradius 83.277
rwrist -36.7289
rhand -9.76334 25.6513
rfingers 7.12502
rthumb 16.2115 -3.69083
lclavicle 2.87244e-014 1.2921e-014
lhumerus 70.5014 -43.9238 10.4111
lradius 93.367
lwrist 23.8486
lhand -18.4945 11.9158
lfingers 7.12502
lthumb 7.79306 41.7522
rfemur -13.1208 3.95886 17.588
rtibia 31.9003
rfoot -18.2265 -14.4222
rtoes -12.0693
lfemur -12.539 -3.41908 -19.9121
ltibia 30.5757
lfoot -18.757 9.57085
ltoes -17.6769
500
root -0.108396 17.8032 -1.21443 1.03605 0.372859 1.45416
lowerback 6.47056 2.17875 0.200126
upperback 2.34021 2.90183 -0.47508
thorax -1.17828 1.45081 -0.812621
lowerneck -3.21807 -5.02496 -6.70062
upperneck 4.98346 -6.64139 5.04423
head 2.61457 -3.30435 2.59098
rclavicle 1.54058e-015 -3.97569e-015
rhumerus 57.2658 63.9385 -5.79793
rradius 84.8356
rwrist -36.6549
rhand -8.99842 25.5891
rfingers 7.12502
rthumb 16.948 -3.69145
lclavicle 1.54058e-015 -3.97569e-015
lhumerus 70.1643 -43.9396 10.6292
lradius 92.324
lwrist 24.1031
lhand -18.7157 12.7118
lfingers 7.12502
lthumb 7.57955 42.5559
rfemur -13.1583 3.97417 17.5897
rtibia 31.9425
rfoot -18.2862 -14.4022
rtoes -11.821
lfemur -12.5466 -3.40949 -19.9091
ltibia 30.5773
lfoot -18.7333 9.59165
ltoes -17.7331
501
root -0.108573 17.8022 -1.21601 1.0358 0.359676 1.5104
lowerback 6.47052 2.14216 0.238408
upperback 2.35522 2.85449 -0.543127
thorax -1.15814 1.42767 -0.899929
lowerneck -3.2488 -4.97613 -6.66254
upperneck 5.02044 -6.57631 5.02917
head 2.6259 -3.27134 2.58102
rclavicle 2.57675e-014 1.19271e-014
rhumerus 58.5272 64.2001 -4.41778
rradius 86.5195
rwrist -36.3303
rhand -8.6264 25.4688
rfingers 7.12502
rthumb 17.306 -3.78072
lclavicle 2.57675e-014 1.19271e-014
lhumerus 69.78 -43.9991 10.9029
lradius 91.1638
lwrist 24.1475
lhand -18.6938 12.5955
lfingers 7.12502
lthumb 7.60074 42.4389
rfemur -13.1933 3.95362 17.5261
rtibia 31.9941
rfoot -18.3554 -14.3515
rtoes -11.7784
lfemur -12.5335 -3.3986 -19.9658
ltibia 30.5438
lfoot -18.6789 9.55835
ltoes -17.6327
502
root -0.105709 17.802 -1.21552 1.01193 0.30285 1.59503
lowerback 6.48967 2.12687 0.110529
upperback 2.36355 2.82688 -0.499978
thorax -1.16906 1.41327 -0.782915
lowerneck -3.29799 -4.91911 -6.70623
upperneck 5.1162 -6.4916 4.93908
head 2.6594 -3.23214 2.56097
rclavicle -2.98177e-014 1.39149e-015
rhumerus 59.9128 64.3812 -2.8188
rradius 88.3038
rwrist -36.0693
rhand -8.30324 25.3816
rfingers 7.12502
rthumb 17.617 -3.84031
lclavicle -2.98177e-014 1.39149e-015
lhumerus 69.3411 -44.1531 11.299
lradius 89.9122
lwrist 23.9364
lhand -18.5084 12.3582
lfingers 7.12502
lthumb 7.77968 42.1951
rfemur -13.1976 3.90386 17.4201
rtibia 32.0299
rfoot -18.318 -14.2947
rtoes -12.0602
lfemur -12.4711 -3.37154 -20.0735
ltibia 30.5072
lfoot -18.6265 9.60067
ltoes -17.7053
